<svg xmlns="http://www.w3.org/2000/svg" width="52" height="50" viewBox="0 0 52 50" fill="none">
<g clip-path="url(#clip0_3_208)">
<path d="M42.7 0H8.5C3.80558 0 0 3.80558 0 8.5V41.42C0 46.1144 3.80558 49.92 8.5 49.92H42.7C47.3944 49.92 51.2 46.1144 51.2 41.42V8.5C51.2 3.80558 47.3944 0 42.7 0Z" fill="#001E36"/>
<path d="M26.8885 35.2818H13.3559C13.1269 35.2818 13.0124 35.1559 13.0125 34.904V13.0939C13.0003 13.0087 13.029 12.9228 13.0898 12.862C13.1506 12.8012 13.2365 12.7726 13.3217 12.7847H17.512C17.5782 12.7754 17.6449 12.7977 17.6922 12.845C17.7394 12.8923 17.7617 12.959 17.7524 13.0252V30.9542H27.6099C27.8159 30.9542 27.8961 31.0572 27.8503 31.2633L27.2321 34.9727C27.2291 35.0754 27.1783 35.1707 27.0947 35.2303C27.031 35.2634 26.9603 35.2811 26.8885 35.2818ZM30.2886 18.2115H34.0324C34.2413 18.2133 34.4235 18.3536 34.4788 18.555C34.5606 18.7055 34.6185 18.8677 34.6506 19.0358C34.6986 19.2568 34.733 19.4805 34.7536 19.7056C34.7762 19.946 34.7877 20.2036 34.788 20.4784C35.4301 19.7308 36.2043 19.1079 37.0721 18.6409C38.0468 18.1139 39.1412 17.8476 40.2492 17.8681C40.3343 17.8559 40.4202 17.8846 40.481 17.9454C40.5418 18.0062 40.5704 18.0921 40.5582 18.1772V22.3331C40.5582 22.4936 40.4438 22.5738 40.2148 22.5736C38.8312 22.488 37.4473 22.7353 36.1791 23.2949C35.748 23.4813 35.3573 23.7496 35.0284 24.0848V34.9727C35.0284 35.1788 34.9368 35.2819 34.7536 35.2819H30.5977C30.5031 35.2954 30.4076 35.2636 30.34 35.196C30.2725 35.1285 30.2407 35.033 30.2543 34.9384V23.1231C30.2543 22.8354 30.2524 22.5383 30.2487 22.2317L30.2416 21.7648C30.2402 21.6858 30.2387 21.6062 30.2371 21.526C30.2282 21.1054 30.2164 20.6879 30.2015 20.2735L30.1855 19.8602C30.1703 19.3883 30.1245 18.9179 30.0482 18.452C30.0307 18.3843 30.0503 18.3125 30.0997 18.263C30.143 18.2198 30.2034 18.1994 30.2631 18.2067L30.2886 18.2115Z" fill="#31A8FF"/>
</g>
<defs>
<clipPath id="clip0_3_208">
<rect width="51.2" height="50" fill="white"/>
</clipPath>
</defs>
</svg>