<svg xmlns="http://www.w3.org/2000/svg" width="52" height="50" viewBox="0 0 52 50" fill="none">
<path d="M9.06667 0H42.1333C47.1467 0 51.2 4.05333 51.2 9.06667V40.8533C51.2 45.8667 47.1467 49.92 42.1333 49.92H9.06667C4.05333 49.92 0 45.8667 0 40.8533V9.06667C0 4.05333 4.05333 0 9.06667 0Z" fill="#00005B"/>
<path d="M12.16 35.008V13.056C12.16 12.9067 12.224 12.8214 12.3733 12.8214L12.6829 12.8209L12.9226 12.8187L13.0916 12.8157L13.2714 12.811L13.4651 12.8043L13.568 12.8C13.76 12.792 13.955 12.787 14.1541 12.7828L14.765 12.77C14.8345 12.7684 14.9046 12.7665 14.9753 12.7644L15.1893 12.7574C15.3813 12.7502 15.578 12.7455 15.7795 12.7416L16.3982 12.7305L16.8264 12.7211L17.0453 12.7147C17.4862 12.7005 17.9176 12.6957 18.3459 12.6941L18.9866 12.6934C20.736 12.6934 22.1866 12.9067 23.3813 13.3547C24.448 13.7174 25.4293 14.3147 26.24 15.104C26.9226 15.7867 27.456 16.6187 27.7973 17.536C28.1173 18.432 28.288 19.3494 28.288 20.3094C28.288 22.144 27.8613 23.6587 27.008 24.8534C26.1546 26.048 24.96 26.944 23.5733 27.456C22.171 27.9716 20.6291 28.1682 18.9477 28.1807L18.338 28.1807L18.1005 28.1782L17.9484 28.1745L17.8588 28.1709L17.7783 28.1661L17.7066 28.16C17.664 28.1558 17.6179 28.1523 17.5682 28.1496L17.4641 28.145L17.3501 28.1419L17.1599 28.1395L16.7893 28.1387V34.9867C16.8106 35.136 16.704 35.264 16.5546 35.2854H12.416C12.2453 35.2854 12.16 35.2 12.16 35.008ZM16.8106 16.9387V24.1067L17.0614 24.1245C17.266 24.1385 17.4598 24.1494 17.6426 24.1494H18.7733C19.6053 24.1494 20.4373 24.0214 21.2266 23.7654C21.9093 23.5734 22.5066 23.168 22.976 22.6347C23.424 22.1014 23.6373 21.376 23.6373 20.4374C23.6586 19.776 23.488 19.1147 23.1466 18.5387C22.7991 18.0071 22.3144 17.5931 21.7301 17.353L21.6533 17.3227C20.864 17.0027 20.0106 16.8747 19.136 16.896L18.6428 16.8966L18.411 16.8981L18.1897 16.901L17.9793 16.9057C17.8769 16.9086 17.7788 16.9124 17.6853 16.9174C17.6379 16.915 17.5921 16.9131 17.5479 16.9118L17.4201 16.909C17.3996 16.9087 17.3795 16.9086 17.3598 16.9085L17.2469 16.9093L17.144 16.912C17.1277 16.9126 17.1118 16.9133 17.0964 16.914L17.009 16.9189L16.9321 16.9249C16.9202 16.926 16.9087 16.9271 16.8977 16.9282L16.8369 16.9351L16.8106 16.9387ZM31.2746 18.176H35.008C35.2095 18.176 35.3729 18.3092 35.4443 18.4858L35.456 18.5174C35.52 18.688 35.5626 18.8587 35.584 19.0507C35.6266 19.264 35.6693 19.4987 35.6906 19.712L35.7084 19.9184C35.7224 20.0947 35.7333 20.2819 35.7333 20.48C36.3442 19.7673 37.0718 19.1712 37.8974 18.7103L38.016 18.6454C38.9973 18.0907 40.128 17.8134 41.2586 17.8134C41.408 17.792 41.536 17.8987 41.5573 18.048V22.2934C41.5573 22.464 41.4506 22.528 41.216 22.528C40.4992 22.5081 39.7638 22.5625 39.0619 22.7086L38.912 22.7414C38.2933 22.8694 37.696 23.0614 37.12 23.3174C36.7146 23.5094 36.3306 23.7654 36.032 24.1067V34.9867C36.032 35.2 35.9466 35.2854 35.7546 35.2854H31.552C31.3813 35.3067 31.232 35.2 31.2106 35.0294V23.1254C31.2106 22.6134 31.2106 22.08 31.1893 21.5254L31.1766 21.1094L31.1593 20.2774C31.156 20.1387 31.152 20 31.1466 19.8614C31.1466 19.3707 31.104 18.9014 31.0613 18.4107C31.04 18.304 31.104 18.1974 31.2106 18.176C31.2106 18.1577 31.242 18.1551 31.2644 18.1682L31.2746 18.176Z" fill="#9999FF"/>
</svg>